<svg fill="none" height="24" viewBox="0 0 24 24" width="24" xmlns="http://www.w3.org/2000/svg"><g fill="#292d32"><path d="m12 18.75c-.41 0-.75-.34-.75-.75v-3c0-.41.34-.75.75-.75s.75.34.75.75v3c0 .41-.34.75-.75.75z"/><path d="m17.6009 22.5601h-11.19996c-1.82 0-3.48-1.4-3.78-3.19l-1.33-7.97c-.22-1.24.39-2.83003 1.38-3.62003l6.93-5.55c1.33996-1.08 3.44996-1.07 4.79996.01l6.93 5.54c.98.79 1.58 2.38003 1.38 3.62003l-1.33 7.96c-.3 1.77-2 3.2-3.78 3.2zm-5.61-19.63003c-.53 0-1.06.16-1.45.47l-6.92996 5.56c-.56.45-.96 1.49003-.84 2.20003l1.33 7.96c.18 1.05 1.23 1.94 2.3 1.94h11.19996c1.07 0 2.12-.89 2.3-1.95l1.33-7.96c.11-.7-.29-1.76003-.84-2.20003l-6.93-5.54c-.4-.32-.94-.48-1.47-.48z"/></g></svg>